<svg xmlns="http://www.w3.org/2000/svg" viewBox="0 0 512 512">
  <rect width="512" height="512" rx="112" fill="#ffffff"/>
  <circle cx="256" cy="256" r="238" fill="#FFD9E5"/>
  <path
    d="M110 258c0-94 64-159 146-159s146 65 146 159c0 87-52 159-146 159s-146-72-146-159Z"
    fill="#BE7A59"
    stroke="#4D2C1D"
    stroke-width="18"
    stroke-linecap="round"
    stroke-linejoin="round"
  />
  <path
    d="M120 252c-22-5-42-26-36-53 6-25 33-36 57-22"
    fill="#BE7A59"
    stroke="#4D2C1D"
    stroke-width="18"
    stroke-linecap="round"
    stroke-linejoin="round"
  />
  <path
    d="M392 252c22-5 42-26 36-53-6-25-33-36-57-22"
    fill="#BE7A59"
    stroke="#4D2C1D"
    stroke-width="18"
    stroke-linecap="round"
    stroke-linejoin="round"
  />
  <path
    d="M89 263c52-48 106-66 167-66s115 18 167 66v80c-35 43-94 74-167 74S124 386 89 343v-80Z"
    fill="#FFE7D1"
  />
  <ellipse cx="185" cy="234" rx="24" ry="31" fill="#3A1708"/>
  <ellipse cx="327" cy="234" rx="24" ry="31" fill="#3A1708"/>
  <circle cx="177" cy="221" r="9" fill="#ffffff"/>
  <circle cx="319" cy="221" r="9" fill="#ffffff"/>
  <ellipse cx="256" cy="262" rx="31" ry="22" fill="#4A2111" stroke="#2D1309" stroke-width="8"/>
  <path
    d="M256 284c0 25-19 43-43 43m43-43c0 25 19 43 43 43"
    fill="none"
    stroke="#4D2C1D"
    stroke-width="10"
    stroke-linecap="round"
  />
  <path d="M219 326c18 29 56 29 74 0" fill="#FF8B98" stroke="#4D2C1D" stroke-width="8" stroke-linecap="round"/>
  <circle cx="151" cy="268" r="22" fill="#F5A2A4" opacity="0.55"/>
  <circle cx="361" cy="268" r="22" fill="#F5A2A4" opacity="0.55"/>
  <path d="M63 252c33-8 58-7 86 2M63 288c33-13 61-17 91-14" stroke="#4D2C1D" stroke-width="10" stroke-linecap="round"/>
  <path d="M449 252c-33-8-58-7-86 2M449 288c-33-13-61-17-91-14" stroke="#4D2C1D" stroke-width="10" stroke-linecap="round"/>
</svg>
